<svg width="136" height="24" viewBox="0 0 136 24" fill="none" xmlns="http://www.w3.org/2000/svg">
<g clip-path="url(#clip0_160_73)">
<path d="M19 9L20.25 6.25L23 5L20.25 3.75L19 1L17.75 3.75L15 5L17.75 6.25L19 9Z" fill="white"/>
<path d="M19 15L17.75 17.75L15 19L17.75 20.25L19 23L20.25 20.25L23 19L20.25 17.75L19 15Z" fill="white"/>
<path d="M11.5 9.5L9 4L6.5 9.5L1 12L6.5 14.5L9 20L11.5 14.5L17 12L11.5 9.5ZM9.99 12.99L9 15.17L8.01 12.99L5.83 12L8.01 11.01L9 8.83L9.99 11.01L12.17 12L9.99 12.99Z" fill="white"/>
</g>
<path d="M32.608 15.18C32.7467 15.276 32.992 15.3933 33.344 15.532C33.696 15.66 34.112 15.724 34.592 15.724C35.008 15.724 35.3493 15.6547 35.616 15.516C35.8827 15.3667 36.0853 15.148 36.224 14.86C36.3733 14.572 36.4693 14.1987 36.512 13.74C36.5653 13.2813 36.592 12.732 36.592 12.092V6.14H38.8V11.916C38.8 12.7693 38.752 13.548 38.656 14.252C38.56 14.956 38.3733 15.564 38.096 16.076C37.8187 16.588 37.3973 16.9827 36.832 17.26C36.2773 17.5373 35.536 17.676 34.608 17.676C34.096 17.676 33.6373 17.6173 33.232 17.5C32.8267 17.3827 32.4533 17.2067 32.112 16.972L32.608 15.18ZM40.6304 14.364V9.116H42.7744V13.9C42.7744 14.54 42.8917 15.0253 43.1264 15.356C43.361 15.676 43.7077 15.836 44.1664 15.836C44.4437 15.836 44.7157 15.7827 44.9824 15.676C45.2597 15.5587 45.5104 15.388 45.7344 15.164C45.969 14.94 46.1664 14.6573 46.3264 14.316V9.116H48.4704V15.1C48.4704 15.324 48.5077 15.484 48.5824 15.58C48.6677 15.676 48.801 15.7347 48.9824 15.756V17.5C48.769 17.532 48.5877 17.5533 48.4384 17.564C48.2997 17.5853 48.1717 17.596 48.0544 17.596C47.6704 17.596 47.3557 17.5107 47.1104 17.34C46.8757 17.1587 46.737 16.9133 46.6944 16.604L46.6464 15.932C46.273 16.4973 45.793 16.9293 45.2064 17.228C44.6197 17.516 43.9744 17.66 43.2704 17.66C42.4064 17.66 41.7504 17.3827 41.3024 16.828C40.8544 16.2627 40.6304 15.4413 40.6304 14.364ZM58.393 17.5H56.249V12.796C56.249 12.124 56.1317 11.6333 55.897 11.324C55.6623 11.0147 55.337 10.86 54.921 10.86C54.633 10.86 54.3397 10.9347 54.041 11.084C53.753 11.2333 53.4917 11.4413 53.257 11.708C53.0223 11.964 52.8517 12.2627 52.745 12.604V17.5H50.601V9.116H52.537V10.668C52.7503 10.3053 53.0223 10.0013 53.353 9.756C53.6837 9.5 54.0623 9.308 54.489 9.18C54.9263 9.04133 55.385 8.972 55.865 8.972C56.3877 8.972 56.8143 9.068 57.145 9.26C57.4863 9.44133 57.7423 9.692 57.913 10.012C58.0943 10.3213 58.217 10.6733 58.281 11.068C58.3557 11.4627 58.393 11.8627 58.393 12.268V17.5ZM60.2573 17.5V9.116H62.4013V17.5H60.2573ZM60.2573 7.948V5.82H62.4013V7.948H60.2573ZM68.2074 17.66C67.5247 17.66 66.9114 17.548 66.3674 17.324C65.8234 17.0893 65.3594 16.7693 64.9754 16.364C64.602 15.9587 64.314 15.4947 64.1114 14.972C63.9087 14.4493 63.8074 13.9 63.8074 13.324C63.8074 12.7373 63.9087 12.1827 64.1114 11.66C64.314 11.1373 64.602 10.6733 64.9754 10.268C65.3594 9.86267 65.8234 9.548 66.3674 9.324C66.9114 9.08933 67.5247 8.972 68.2074 8.972C68.89 8.972 69.498 9.08933 70.0314 9.324C70.5754 9.548 71.0394 9.86267 71.4234 10.268C71.8074 10.6733 72.0954 11.1373 72.2874 11.66C72.49 12.1827 72.5914 12.7373 72.5914 13.324C72.5914 13.9 72.49 14.4493 72.2874 14.972C72.0954 15.4947 71.8074 15.9587 71.4234 16.364C71.05 16.7693 70.5914 17.0893 70.0474 17.324C69.5034 17.548 68.89 17.66 68.2074 17.66ZM66.0154 13.324C66.0154 13.8147 66.1114 14.252 66.3034 14.636C66.4954 15.0093 66.7567 15.3027 67.0874 15.516C67.418 15.7293 67.7914 15.836 68.2074 15.836C68.6127 15.836 68.9807 15.7293 69.3114 15.516C69.642 15.292 69.9034 14.9933 70.0954 14.62C70.298 14.236 70.3994 13.7987 70.3994 13.308C70.3994 12.828 70.298 12.396 70.0954 12.012C69.9034 11.628 69.642 11.3293 69.3114 11.116C68.9807 10.9027 68.6127 10.796 68.2074 10.796C67.7914 10.796 67.418 10.908 67.0874 11.132C66.7567 11.3453 66.4954 11.644 66.3034 12.028C66.1114 12.4013 66.0154 12.8333 66.0154 13.324ZM79.0305 10.972C78.3798 10.972 77.7985 11.1 77.2865 11.356C76.7745 11.6013 76.4065 11.9587 76.1825 12.428V17.5H74.0385V9.116H76.0065V10.908C76.3052 10.332 76.6838 9.87867 77.1425 9.548C77.6012 9.21733 78.0865 9.036 78.5985 9.004C78.7158 9.004 78.8065 9.004 78.8705 9.004C78.9345 9.004 78.9878 9.00933 79.0305 9.02V10.972ZM80.434 17.5V6.14H82.642V15.564H88.434V17.5H80.434ZM89.5698 17.5V9.116H91.7138V17.5H89.5698ZM89.5698 7.948V5.82H91.7138V7.948H89.5698ZM106.672 17.5H104.528V12.796C104.528 12.1347 104.411 11.6493 104.176 11.34C103.952 11.02 103.637 10.86 103.232 10.86C102.816 10.86 102.416 11.0253 102.032 11.356C101.659 11.676 101.392 12.0973 101.232 12.62V17.5H99.0879V12.796C99.0879 12.124 98.9705 11.6333 98.7359 11.324C98.5119 11.0147 98.1972 10.86 97.7919 10.86C97.3759 10.86 96.9759 11.02 96.5919 11.34C96.2185 11.66 95.9519 12.0813 95.7919 12.604V17.5H93.6479V9.116H95.5839V10.668C95.9039 10.124 96.3305 9.708 96.8639 9.42C97.3972 9.12133 98.0105 8.972 98.7039 8.972C99.3972 8.972 99.9359 9.14267 100.32 9.484C100.715 9.82533 100.965 10.2467 101.072 10.748C101.413 10.172 101.845 9.73467 102.368 9.436C102.901 9.12667 103.499 8.972 104.16 8.972C104.683 8.972 105.104 9.068 105.424 9.26C105.755 9.44133 106.011 9.692 106.192 10.012C106.373 10.3213 106.496 10.6733 106.56 11.068C106.635 11.4627 106.672 11.8627 106.672 12.268V17.5ZM107.963 15.02C107.963 14.476 108.112 14.0013 108.411 13.596C108.72 13.18 109.147 12.86 109.691 12.636C110.235 12.412 110.859 12.3 111.562 12.3C111.915 12.3 112.272 12.3267 112.635 12.38C112.997 12.4333 113.312 12.5187 113.579 12.636V12.188C113.579 11.6547 113.419 11.244 113.099 10.956C112.789 10.668 112.325 10.524 111.707 10.524C111.248 10.524 110.811 10.604 110.395 10.764C109.979 10.924 109.541 11.1587 109.083 11.468L108.395 10.06C108.949 9.69733 109.515 9.42533 110.091 9.244C110.677 9.06267 111.291 8.972 111.931 8.972C113.125 8.972 114.053 9.27067 114.715 9.868C115.387 10.4653 115.723 11.3187 115.723 12.428V15.1C115.723 15.324 115.76 15.484 115.835 15.58C115.92 15.676 116.053 15.7347 116.235 15.756V17.5C116.043 17.532 115.867 17.5587 115.707 17.58C115.557 17.6013 115.429 17.612 115.323 17.612C114.896 17.612 114.571 17.516 114.347 17.324C114.133 17.132 114 16.8973 113.947 16.62L113.899 16.188C113.536 16.6573 113.083 17.02 112.539 17.276C111.995 17.532 111.44 17.66 110.875 17.66C110.32 17.66 109.819 17.548 109.371 17.324C108.933 17.0893 108.587 16.7747 108.331 16.38C108.085 15.9747 107.963 15.5213 107.963 15.02ZM113.179 15.452C113.296 15.324 113.392 15.196 113.467 15.068C113.541 14.94 113.579 14.8227 113.579 14.716V13.868C113.323 13.7613 113.045 13.6813 112.747 13.628C112.448 13.564 112.165 13.532 111.899 13.532C111.344 13.532 110.885 13.6547 110.523 13.9C110.171 14.1347 109.995 14.4493 109.995 14.844C109.995 15.0573 110.053 15.26 110.171 15.452C110.288 15.644 110.459 15.7987 110.683 15.916C110.907 16.0333 111.173 16.092 111.483 16.092C111.803 16.092 112.117 16.0333 112.427 15.916C112.736 15.788 112.987 15.6333 113.179 15.452ZM122.846 13.724C123.294 13.7987 123.683 13.9693 124.014 14.236C124.345 14.492 124.601 14.8227 124.782 15.228C124.974 15.6333 125.07 16.0813 125.07 16.572C125.07 17.2333 124.899 17.8093 124.558 18.3C124.217 18.7907 123.731 19.1693 123.102 19.436C122.483 19.7133 121.753 19.852 120.91 19.852C120.099 19.852 119.379 19.7187 118.75 19.452C118.131 19.196 117.614 18.8173 117.198 18.316L118.414 16.796C118.691 17.1373 119.022 17.404 119.406 17.596C119.801 17.7987 120.281 17.9 120.846 17.9C121.497 17.9 121.993 17.7667 122.334 17.5C122.675 17.244 122.846 16.8547 122.846 16.332C122.846 15.7773 122.649 15.3507 122.254 15.052C121.859 14.7533 121.262 14.604 120.462 14.604H120.014V13.004H120.51C121.161 13.004 121.667 12.8547 122.03 12.556C122.403 12.2573 122.59 11.884 122.59 11.436C122.59 11.148 122.521 10.908 122.382 10.716C122.243 10.524 122.051 10.38 121.806 10.284C121.571 10.188 121.294 10.14 120.974 10.14C120.494 10.14 120.057 10.252 119.662 10.476C119.267 10.7 118.947 11.0147 118.702 11.42L117.358 9.916C117.582 9.58533 117.886 9.30267 118.27 9.068C118.665 8.82267 119.113 8.63067 119.614 8.492C120.126 8.35333 120.659 8.284 121.214 8.284C121.939 8.284 122.574 8.40133 123.118 8.636C123.673 8.87067 124.105 9.20133 124.414 9.628C124.723 10.0547 124.878 10.5507 124.878 11.116C124.878 11.532 124.793 11.9267 124.622 12.3C124.451 12.6733 124.211 12.988 123.902 13.244C123.603 13.4893 123.251 13.6493 122.846 13.724ZM134.744 13.708C134.744 14.444 134.557 15.1107 134.184 15.708C133.821 16.3053 133.325 16.78 132.696 17.132C132.077 17.484 131.373 17.66 130.584 17.66C129.731 17.66 128.989 17.452 128.36 17.036C127.741 16.62 127.261 16.0227 126.92 15.244C126.579 14.4653 126.408 13.532 126.408 12.444C126.408 11.068 126.584 9.90533 126.936 8.956C127.299 7.996 127.811 7.276 128.472 6.796C129.133 6.30533 129.912 6.06 130.808 6.06C131.523 6.06 132.179 6.21467 132.776 6.524C133.384 6.83333 133.896 7.276 134.312 7.852L133.08 9.196C132.824 8.80133 132.493 8.492 132.088 8.268C131.683 8.03333 131.245 7.916 130.776 7.916C130.296 7.916 129.88 8.044 129.528 8.3C129.176 8.556 128.904 8.92933 128.712 9.42C128.52 9.9 128.413 10.4813 128.392 11.164C128.541 10.908 128.733 10.6893 128.968 10.508C129.203 10.316 129.475 10.172 129.784 10.076C130.093 9.96933 130.424 9.916 130.776 9.916C131.533 9.916 132.211 10.0867 132.808 10.428C133.405 10.7587 133.875 11.212 134.216 11.788C134.568 12.3533 134.744 12.9933 134.744 13.708ZM130.584 15.852C130.968 15.852 131.32 15.756 131.64 15.564C131.96 15.3613 132.216 15.1 132.408 14.78C132.6 14.4493 132.696 14.092 132.696 13.708C132.696 13.324 132.6 12.9773 132.408 12.668C132.216 12.348 131.96 12.0973 131.64 11.916C131.331 11.724 130.984 11.628 130.6 11.628C130.216 11.628 129.864 11.724 129.544 11.916C129.224 12.0973 128.968 12.348 128.776 12.668C128.595 12.9773 128.504 13.324 128.504 13.708C128.504 14.092 128.6 14.4493 128.792 14.78C128.984 15.1 129.24 15.3613 129.56 15.564C129.88 15.756 130.221 15.852 130.584 15.852Z" fill="#F9004D"/>
<defs>
<clipPath id="clip0_160_73">
<rect width="24" height="24" fill="white"/>
</clipPath>
</defs>
</svg>
